<svg width="55" height="44" viewBox="0 0 55 44" fill="none" xmlns="http://www.w3.org/2000/svg">
<path fill-rule="evenodd" clip-rule="evenodd" d="M25.4458 29.903C24.3113 33.5128 23.0102 40.8653 28.8241 40.9096C32.5235 40.9372 36.9592 38.092 37.7584 34.3213C38.7597 29.5954 33.7855 27.4303 29.9776 26.9473C28.8815 26.8079 27.7694 26.758 26.6507 26.7711C26.1905 27.7912 25.7818 28.8343 25.4458 29.903ZM0.0805244 33.4487C7.1837 28.6922 15.9763 25.2132 24.6851 24.6032C25.5871 22.8528 26.574 21.2629 27.4788 19.9692C32.7357 12.4539 41.1171 5.81589 49.7528 2.64458C50.6966 2.29834 51.4526 3.25196 51.3353 4.06983C51.4535 3.62358 51.5662 3.17575 51.6734 2.72634C50.4904 2.49389 49.3087 2.45444 48.0658 2.61333C47.3064 2.71068 46.5288 3.03205 45.7753 3.0695C45.3265 3.09193 45.2121 2.79266 44.7264 2.88366C44.5714 2.91272 44.4157 2.73979 44.546 2.60303C44.903 2.22887 44.8855 1.79232 45.2583 1.43308C45.8453 0.866906 47.2147 0.492871 47.9695 0.310791C49.8492 -0.142689 51.7868 -0.0718281 53.6641 0.341368C54.4481 0.514201 54.8281 1.27275 54.7223 2.02065C54.4633 3.85416 53.944 5.65106 53.3163 7.38993C52.7722 8.89632 52.2514 10.6429 51.1042 11.7938C50.2053 12.6967 48.7205 11.9252 48.9421 10.6694C49.2122 9.13685 50.1402 7.73633 50.666 6.26832C50.8916 5.63896 51.0791 5.00283 51.254 4.36351C51.1663 4.55643 51.0188 4.72958 50.7966 4.8589C43.6182 9.03637 36.6836 12.8136 31.3045 19.3596C29.9827 20.9669 28.7935 22.6947 27.7817 24.519C27.9724 24.5212 28.165 24.5151 28.3566 24.5197C34.6538 24.6876 42.9945 28.7339 39.7804 36.3923C37.4999 41.8285 27.6855 46.9305 23.3331 40.9247C20.5521 37.0875 21.555 31.6914 23.5789 26.9541C20.894 27.2326 18.2163 27.784 15.6673 28.3384C10.3533 29.4933 5.17869 31.4165 0.268924 33.739C0.074169 33.8309 -0.110631 33.5765 0.0805244 33.4487Z" fill="black"/>
</svg>
