<svg width="138" height="43" viewBox="0 0 138 43" fill="none" xmlns="http://www.w3.org/2000/svg">
<path fill-rule="evenodd" clip-rule="evenodd" d="M103.707 26.7664C106.555 26.7664 108.891 24.7592 108.891 20.8784C108.891 17.1314 106.567 15.1241 103.707 15.1241C100.716 15.1241 98.1782 17.1801 98.1782 20.8784C98.1663 24.7227 100.716 26.7664 103.707 26.7664ZM81.8528 26.7664C84.4863 26.7664 87.2032 24.7105 87.2032 21.0122C87.2032 17.1801 84.4863 15.1241 81.8528 15.1241C79.2193 15.1241 76.5381 17.1801 76.5381 21.0122C76.55 24.7226 79.2193 26.7664 81.8528 26.7664ZM60.2246 26.7664C63.2037 26.7664 65.7538 24.7105 65.7538 20.8784C65.7538 17.1801 63.2156 15.1241 60.2246 15.1241C57.3766 15.1241 55.041 17.1314 55.041 20.8784C55.0529 24.7592 57.3766 26.7664 60.2246 26.7664ZM108.569 11.4745V1H115.505V12.326V32.5207H108.569V30.2093C108.259 31.0122 106.198 32.9708 102.694 32.9708C98.8574 32.9708 94.6033 30.9148 92.6133 26.5474C90.3968 30.9027 85.6779 32.9708 81.8528 32.9708C78.0992 32.9708 73.4756 30.9636 71.2115 26.7543C69.1738 30.9757 65.0031 32.9708 61.2375 32.9708C57.7222 32.9708 55.6607 31.0122 55.3627 30.2093V41H48.4274V27.5816V9.34555H55.3627V11.4866C55.6726 11 57.7341 8.94407 61.2375 8.94407C65.0269 8.94407 69.2215 11.0487 71.2472 15.2458C73.5233 11.0365 78.123 8.94407 81.8647 8.94407C85.666 8.94407 90.3611 11.0973 92.5894 15.4526C94.5676 11.1217 98.8455 8.94407 102.694 8.94407C106.198 8.93191 108.259 10.9879 108.569 11.4745ZM18.5567 25.0043C17.4105 25.9902 16.4773 26.7929 14.0646 26.7929C11.4221 26.7929 8.73177 24.8183 8.73177 21.0519C8.73177 17.2612 11.4221 15.2013 14.0646 15.2013C16.3647 15.2013 17.3119 16.0112 18.3816 16.9258C18.4407 16.9764 18.5003 17.0272 18.5604 17.0783L23.8454 14.5308C21.6812 10.7888 18.1658 8.99707 13.9809 8.99707C8.87525 8.99707 2 12.9707 2 21.0641C2 29.2917 8.87525 32.9971 13.9809 32.9971C18.2495 32.9971 21.6812 31.3028 23.9291 27.5487L18.5604 25.0011L18.5567 25.0043ZM40.3469 21.0644C40.3469 24.7586 37.5778 26.8122 34.8937 26.8122C32.2096 26.8122 29.477 24.7586 29.477 21.0644C29.477 17.2365 32.2096 15.1828 34.8937 15.1828C37.5778 15.1828 40.3469 17.2365 40.3469 21.0644ZM47.1482 21.0644C47.1482 12.9591 40.1769 8.99756 34.8937 8.99756C29.6106 8.99756 22.6392 12.9591 22.6392 21.0644C22.6392 29.2183 29.6227 32.9976 34.8937 32.9976C40.1647 32.9976 47.1482 29.2183 47.1482 21.0644ZM129.359 18.6852L129.33 18.675L126.31 17.6347C125.253 17.2839 124.707 16.8 124.707 15.9532C124.707 15.0701 125.676 14.5379 126.633 14.5379C127.677 14.5379 128.646 15.0702 129.28 16.6669L135.369 15.1185C134.002 11.4411 130.933 8.99756 126.31 8.99756C121.774 8.99756 117.66 11.5137 117.66 15.8201C117.66 19.1105 119.91 21.4572 124.669 23.1387L127.466 24.1185C128.621 24.5661 128.982 25.1347 128.982 25.5822C128.982 26.4653 127.975 27.4451 126.422 27.4451C124.135 27.4451 123.079 25.9814 122.482 24.6991L116.803 26.429C117.81 30.4693 121.973 32.9976 126.409 32.9976C131.343 32.9976 136.152 30.3362 136.152 25.679C136.152 21.0832 132.742 19.8794 129.359 18.6852Z" fill="#26252D"/>
</svg>
